<svg width="18" height="20" viewBox="0 0 18 20" fill="none" xmlns="http://www.w3.org/2000/svg">
<path d="M2 20C1.45 20 0.979167 19.8042 0.5875 19.4125C0.195833 19.0208 0 18.55 0 18V13.45L2.75 10.325L4.175 11.75L2.175 14H15.825L13.875 11.8L15.3 10.375L18 13.45V18C18 18.55 17.8042 19.0208 17.4125 19.4125C17.0208 19.8042 16.55 20 16 20H2ZM2 18H16V16H2V18ZM7.625 12.375L4.1 8.85C3.71667 8.46666 3.52917 7.99583 3.5375 7.4375C3.54583 6.87916 3.74167 6.40833 4.125 6.025L9.025 1.125C9.40833 0.741665 9.88333 0.541665 10.45 0.524998C11.0167 0.508331 11.4917 0.691665 11.875 1.075L15.4 4.6C15.7833 4.98333 15.9833 5.45 16 6C16.0167 6.55 15.8333 7.01666 15.45 7.4L10.45 12.4C10.0667 12.7833 9.59583 12.9708 9.0375 12.9625C8.47917 12.9542 8.00833 12.7583 7.625 12.375ZM14 6.025L10.475 2.5L5.525 7.45L9.05 10.975L14 6.025Z" fill="#EEEDE1"/>
</svg>
