<svg fill="none" height="16" viewBox="0 0 20 16" width="20" xmlns="http://www.w3.org/2000/svg"><path d="m4 16c-1.1 0-2.04167-.3917-2.825-1.175-.783333-.7833-1.175-1.725-1.175-2.825v-8c0-1.1.391667-2.04167 1.175-2.825.78333-.783333 1.725-1.175 2.825-1.175h12c1.1 0 2.0417.391667 2.825 1.175.7833.78333 1.175 1.725 1.175 2.825v8c0 1.1-.3917 2.0417-1.175 2.825s-1.725 1.175-2.825 1.175zm0-12h12c.3667 0 .7167.04167 1.05.125s.65.21667.95.4v-.525c0-.55-.1958-1.02083-.5875-1.4125s-.8625-.5875-1.4125-.5875h-12c-.55 0-1.02083.19583-1.4125.5875s-.5875.8625-.5875 1.4125v.525c.3-.18333.61667-.31667.95-.4s.68333-.125 1.05-.125zm-1.85 3.25 11.125 2.7c.15.03333.3.03333.45 0s.2917-.1.425-.2l3.475-2.9c-.1833-.25-.4167-.45417-.7-.6125s-.5917-.2375-.925-.2375h-12c-.43333 0-.8125.1125-1.1375.3375s-.5625.52917-.7125.9125z" fill="#eeede1"/></svg>